<svg width="95" height="95" viewBox="0 0 95 95" fill="none" xmlns="http://www.w3.org/2000/svg">
<rect width="95" height="95" rx="47.5" fill="#BA9FB7"/>
<path d="M74.9222 39.3478C73.3426 37.6365 71.0927 36.6911 68.5916 36.6911H62.5722V33.4361C62.5722 32.6462 61.926 32 61.1361 32H32.463C31.6732 32 31.0269 32.6462 31.0269 33.4361V38.4383H25.4383C24.6485 38.4383 24.0023 39.0845 24.0023 39.8743C24.0023 40.6642 24.6485 41.3104 25.4383 41.3104H32.4271C32.4391 41.3104 32.451 41.3104 32.463 41.3104C32.463 41.3104 32.463 41.3104 32.475 41.3104C33.2648 41.3104 33.911 40.6642 33.911 39.8743V34.8721H59.7121V38.1271V57.3822H46.1892C46.1294 57.3822 46.0696 57.3822 46.0097 57.3942C45.2917 55.623 43.5565 54.3665 41.534 54.3665C39.4996 54.3665 37.7644 55.635 37.0583 57.4181C36.9506 57.3942 36.8549 57.3822 36.7472 57.3822H33.911V52.368C33.911 51.5782 33.2648 50.9319 32.475 50.9319C32.451 50.9319 32.4271 50.9319 32.4032 50.9319C32.3792 50.9319 32.3673 50.9319 32.3433 50.9319H25.4383C24.6485 50.9319 24.0023 51.5782 24.0023 52.368C24.0023 53.1578 24.6485 53.804 25.4383 53.804H31.0269V58.8063C31.0269 59.5961 31.6732 60.2423 32.463 60.2423H36.7352C36.7711 60.2423 36.7951 60.2423 36.831 60.2423C37.3097 62.3964 39.2364 64 41.534 64C43.8317 64 45.7465 62.3964 46.2371 60.2423H61.1481H63.4458C63.9364 62.3844 65.8512 64 68.1488 64C70.4465 64 72.3613 62.3964 72.8519 60.2423H76.0591C76.8489 60.2423 77.4951 59.5961 77.4951 58.8063V46.8751C77.4951 43.7756 76.5976 41.1668 74.9222 39.3478ZM41.534 61.1399C40.457 61.1399 39.5834 60.2663 39.5834 59.1892C39.5834 58.1122 40.457 57.2386 41.534 57.2386C42.6111 57.2386 43.4847 58.1122 43.4847 59.1892C43.4847 60.2663 42.6111 61.1399 41.534 61.1399ZM68.1488 61.1399C67.0718 61.1399 66.1982 60.2663 66.1982 59.1892C66.1982 58.1122 67.0718 57.2386 68.1488 57.2386C69.2259 57.2386 70.0995 58.1122 70.0995 59.1892C70.0875 60.2663 69.2139 61.1399 68.1488 61.1399ZM74.623 57.3822H72.6126C71.8945 55.623 70.1593 54.3665 68.1488 54.3665C66.1384 54.3665 64.4031 55.6111 63.6851 57.3822H62.5842V39.5632H68.6036C72.3732 39.5632 74.623 42.3037 74.623 46.8871V57.3822Z" fill="white"/>
<path d="M43.6642 48.8138C43.1017 49.3762 43.1017 50.2857 43.6642 50.8482C43.9394 51.1234 44.3104 51.267 44.6814 51.267C45.0524 51.267 45.4114 51.1234 45.6986 50.8482L49.3964 47.1504L49.4084 47.1384C49.4323 47.1025 49.4682 47.0786 49.4921 47.0427C49.5041 47.0187 49.5161 47.0068 49.528 46.9828C49.54 46.9589 49.552 46.9469 49.5759 46.923C49.5879 46.8991 49.5998 46.8751 49.6118 46.8512C49.6238 46.8273 49.6357 46.8153 49.6477 46.7914C49.6597 46.7674 49.6716 46.7435 49.6836 46.7196C49.6956 46.6956 49.7076 46.6837 49.7076 46.6597C49.7195 46.6358 49.7195 46.6119 49.7315 46.5879C49.7434 46.564 49.7435 46.5401 49.7554 46.5281C49.7674 46.5042 49.7674 46.4802 49.7674 46.4563C49.7674 46.4323 49.7794 46.4084 49.7794 46.3845C49.7794 46.3605 49.7913 46.3366 49.7913 46.3007C49.7913 46.2768 49.8033 46.2648 49.8033 46.2409C49.8153 46.1451 49.8153 46.0494 49.8033 45.9537C49.8033 45.9297 49.8033 45.9178 49.7913 45.8938C49.7913 45.8699 49.7794 45.846 49.7794 45.8101C49.7794 45.7861 49.7674 45.7622 49.7674 45.7383C49.7674 45.7143 49.7554 45.6904 49.7554 45.6665C49.7435 45.6425 49.7434 45.6186 49.7315 45.6066C49.7195 45.5827 49.7195 45.5588 49.7076 45.5348C49.6956 45.5109 49.6836 45.4989 49.6836 45.475C49.6716 45.451 49.6597 45.4271 49.6477 45.4032C49.6357 45.3792 49.6238 45.3673 49.6118 45.3433C49.5998 45.3194 49.5879 45.2955 49.5759 45.2715C49.5639 45.2476 49.552 45.2356 49.528 45.2117C49.5161 45.1878 49.5041 45.1758 49.4921 45.1519C49.4682 45.116 49.4323 45.092 49.4084 45.0561L49.3964 45.0442L45.8781 41.5258C45.3156 40.9634 44.4061 40.9634 43.8437 41.5258C43.2812 42.0883 43.2812 42.9978 43.8437 43.5602L44.9087 44.6253H20.4361C19.6462 44.6253 19 45.2715 19 46.0614C19 46.8512 19.6462 47.4974 20.4361 47.4974H44.8968L43.6642 48.8138Z" fill="white"/>
</svg>
