<svg width="96" height="96" viewBox="0 0 96 96" fill="none" xmlns="http://www.w3.org/2000/svg">
<rect x="0.0625" y="0.115723" width="95" height="95" rx="47.5" fill="#BA9FB7"/>
<path d="M38.1079 42.8237C38.1079 41.9942 37.4292 41.3154 36.5997 41.3154H24.5083C23.6787 41.3154 23 41.9942 23 42.8237C23 43.6533 23.6787 44.332 24.5083 44.332H36.5997C37.4292 44.332 38.1079 43.6533 38.1079 42.8237Z" fill="white"/>
<path d="M71.1393 41.3154H59.048C58.2184 41.3154 57.5397 41.9942 57.5397 42.8237C57.5397 43.6533 58.2184 44.332 59.048 44.332H71.1393C71.9689 44.332 72.6476 43.6533 72.6476 42.8237C72.6476 41.9942 71.9815 41.3154 71.1393 41.3154Z" fill="white"/>
<path d="M47.8238 33.1079C48.6534 33.1079 49.3321 32.4292 49.3321 31.5997V19.5083C49.3321 18.6787 48.6534 18 47.8238 18C46.9943 18 46.3156 18.6787 46.3156 19.5083V31.5997C46.3156 32.4292 46.9943 33.1079 47.8238 33.1079Z" fill="white"/>
<path d="M55.7548 36.401C56.1445 36.401 56.5215 36.2501 56.8232 35.9611L65.3827 27.4016C65.9734 26.8108 65.9734 25.8556 65.3827 25.2648C64.792 24.6741 63.8367 24.6741 63.246 25.2648L54.6865 33.8243C54.0957 34.4151 54.0957 35.3703 54.6865 35.9611C54.9881 36.2501 55.3778 36.401 55.7548 36.401Z" fill="white"/>
<path d="M38.8244 35.9611C39.1135 36.2501 39.5031 36.401 39.8928 36.401C40.2824 36.401 40.6595 36.2501 40.9611 35.9611C41.5519 35.3703 41.5519 34.4151 40.9611 33.8243L32.4016 25.2648C31.8109 24.6741 30.8556 24.6741 30.2649 25.2648C29.6742 25.8556 29.6742 26.8108 30.2649 27.4016L38.8244 35.9611Z" fill="white"/>
<path d="M65.9483 52.3384C64.8046 51.358 63.3591 50.8175 61.8886 50.8175H60.5185H55.5915H53.2536V44.7215C53.2536 41.8055 52.3864 39.6814 50.6644 38.4119C47.9495 36.426 44.2668 37.5446 44.1034 37.5949C43.475 37.796 43.0476 38.3742 43.0476 39.0278V46.3807C43.0476 48.6179 41.9792 50.5159 39.8551 52.0367C38.2462 53.1931 36.5997 53.721 36.386 53.7838L36.2352 53.8215C35.6696 53.1805 34.84 52.7783 33.9099 52.7783H28.1785C26.4691 52.7783 25.0739 54.1734 25.0739 55.8828V74.6861C25.0739 76.3955 26.4691 77.7906 28.1785 77.7906H33.9351C34.6892 77.7906 35.3931 77.5141 35.921 77.0616C37.0773 78.1928 38.6484 78.8841 40.3453 78.8841H46.0642H46.6549H58.3567C60.1666 78.8841 61.7629 78.4442 62.9821 77.6272C64.5406 76.5714 65.5084 74.8997 65.7849 72.763L68.1102 58.3087C68.4747 56.0714 67.6452 53.7838 65.9483 52.3384ZM34.0231 74.6861C34.0231 74.7364 33.9853 74.7741 33.9351 74.7741H28.1785C28.1282 74.7741 28.0905 74.7364 28.0905 74.6861V55.8828C28.0905 55.8326 28.1282 55.7948 28.1785 55.7948H33.9351C33.9853 55.7948 34.0231 55.8326 34.0231 55.8828V74.6861ZM65.1314 57.8436L62.8061 72.3231C62.8061 72.3357 62.8061 72.3608 62.7935 72.3859C62.693 73.2532 62.3662 75.8801 58.3567 75.8801H46.6549H46.0642H40.3453C38.7364 75.8801 37.3287 74.6735 37.0773 73.0772C37.0648 73.0144 37.0522 72.9515 37.0396 72.9013V56.7375L37.1276 56.7124C37.1527 56.7124 37.1653 56.6998 37.1904 56.6998C37.2784 56.6747 39.4152 56.0714 41.5393 54.5505C44.493 52.4515 46.0642 49.6235 46.0642 46.3807V40.2721C46.8937 40.1841 48.0375 40.2218 48.8796 40.8377C49.7846 41.5039 50.2371 42.8111 50.2371 44.709V52.3132C50.2371 53.1428 50.9158 53.8215 51.7454 53.8215H55.5915H60.5185H61.8886C62.6427 53.8215 63.3843 54.1106 63.9876 54.6134C64.8925 55.3926 65.3199 56.6244 65.1314 57.8436Z" fill="white"/>
</svg>
