<svg width="95" height="95" viewBox="0 0 95 95" fill="none" xmlns="http://www.w3.org/2000/svg">
<rect width="95" height="95" rx="47.5" fill="#BA9FB7"/>
<path d="M58.1537 49.8574H51.6216C49.8339 49.8574 48.3801 51.3112 48.3801 53.0989V58.1085C48.3801 59.8963 49.8339 61.3501 51.6216 61.3501H58.1537C59.9415 61.3501 61.3952 59.8963 61.3952 58.1085V53.0989C61.3952 51.3112 59.9415 49.8574 58.1537 49.8574ZM59.0378 58.1085C59.0378 58.5997 58.6351 58.9926 58.1537 58.9926H51.6216C51.1305 58.9926 50.7376 58.5899 50.7376 58.1085V53.0989C50.7376 52.6078 51.1403 52.2149 51.6216 52.2149H58.1537C58.6449 52.2149 59.0378 52.6176 59.0378 53.0989V58.1085Z" fill="white"/>
<path d="M72.0726 40.7519C72.0726 40.5456 72.0235 40.3491 71.9154 40.1723L64.7645 27.5992C64.5582 27.2357 64.1653 27 63.7429 27H32.3199C31.8975 27 31.5046 27.2259 31.2983 27.5992L24.1572 40.1723C24.0589 40.3491 24 40.5456 24 40.7519C24 43.571 25.6993 45.9874 28.1256 47.0581V67.7939C28.1256 68.4422 28.656 68.9727 29.3043 68.9727H35.8168C35.8266 68.9727 35.8364 68.9727 35.8462 68.9727H44.9814C44.9912 68.9727 45.0011 68.9727 45.0109 68.9727H66.7585C67.4068 68.9727 67.9372 68.4422 67.9372 67.7939V47.2054C67.9372 47.1563 67.9372 47.117 67.9274 47.0777C70.3634 46.007 72.0726 43.5808 72.0726 40.7519ZM33.0075 29.3673H63.0553L68.6444 39.1999H27.4281L33.0075 29.3673ZM58.2127 41.5475C57.8394 43.6692 55.9829 45.2802 53.7531 45.2802C51.5234 45.2802 49.6669 43.6692 49.2936 41.5475H58.2127ZM46.7888 41.5475C46.4155 43.6692 44.559 45.2802 42.3293 45.2802C40.0995 45.2802 38.243 43.6692 37.8599 41.5475H46.7888ZM26.436 41.5475H35.3649C34.9917 43.6692 33.1253 45.2802 30.8956 45.2802C28.6658 45.29 26.8093 43.6692 26.436 41.5475ZM43.8027 66.6152H37.025V53.8947C37.025 52.9714 37.7715 52.215 38.7047 52.215H42.1328C43.0562 52.215 43.8125 52.9616 43.8125 53.8947V66.6152H43.8027ZM65.5797 66.6152H46.1601V53.8947C46.1601 51.6748 44.3528 49.8576 42.123 49.8576H38.6949C36.4749 49.8576 34.6577 51.665 34.6577 53.8947V66.625H30.483V47.6376C30.6205 47.6474 30.7581 47.6474 30.8956 47.6474C33.2727 47.6474 35.3748 46.4392 36.6124 44.6024C37.8501 46.4392 39.9522 47.6474 42.3293 47.6474C44.7064 47.6474 46.7986 46.4392 48.0461 44.6024C49.2838 46.4392 51.3859 47.6474 53.7531 47.6474C56.1302 47.6474 58.2225 46.4392 59.4602 44.6024C60.6978 46.4392 62.7999 47.6474 65.177 47.6474C65.3145 47.6474 65.4422 47.6376 65.5797 47.6376V66.6152ZM65.177 45.29C62.9472 45.29 61.0907 43.679 60.7175 41.5573H69.6464C69.2633 43.6692 67.4068 45.29 65.177 45.29Z" fill="white"/>
</svg>
